<?xml version="1.0" encoding="utf-8"?>
<!-- Generator: Adobe Illustrator 17.0.1, SVG Export Plug-In . SVG Version: 6.00 Build 0)  -->
<!DOCTYPE svg PUBLIC "-//W3C//DTD SVG 1.1//EN" "http://www.w3.org/Graphics/SVG/1.1/DTD/svg11.dtd">
<svg version="1.1" id="Layer_1" xmlns="http://www.w3.org/2000/svg" xmlns:xlink="http://www.w3.org/1999/xlink" x="0px" y="0px"
	 width="24.999px" height="15px" viewBox="0 0 24.999 15" enable-background="new 0 0 24.999 15" xml:space="preserve">
<path fill="#D24A43" d="M22.997,11.058V15h2.002V9.087H2.002V1.01c0-0.257-0.098-0.489-0.293-0.698C1.514,0.104,1.278,0,1.001,0
	C0.724,0,0.488,0.104,0.293,0.312C0.098,0.521,0,0.753,0,1.01V15h2.002v-3.943H22.997z M5.151,5.048
	c0.505,0,0.944-0.175,1.318-0.529c0.374-0.352,0.561-0.777,0.561-1.274c0-0.496-0.187-0.921-0.561-1.274
	C6.095,1.618,5.656,1.442,5.151,1.442c-0.504,0-0.936,0.176-1.294,0.528C3.499,2.323,3.32,2.749,3.32,3.245
	c0,0.497,0.179,0.922,0.537,1.274C4.215,4.872,4.647,5.048,5.151,5.048z M24.999,7.596V5.192c0-0.385-0.138-0.697-0.415-0.938
	c-0.277-0.24-0.627-0.392-1.05-0.456L9.033,2.404H8.935c-0.26,0-0.48,0.088-0.659,0.264C8.097,2.844,8.007,3.06,8.007,3.317v2.789
	H4.297c-0.618,0-0.928,0.249-0.928,0.745c0,0.497,0.309,0.745,0.928,0.745H24.999L24.999,7.596z"/>
</svg>
