<?xml version="1.0" encoding="utf-8"?>
<!-- Generator: Adobe Illustrator 17.0.1, SVG Export Plug-In . SVG Version: 6.00 Build 0)  -->
<!DOCTYPE svg PUBLIC "-//W3C//DTD SVG 1.1//EN" "http://www.w3.org/Graphics/SVG/1.1/DTD/svg11.dtd">
<svg version="1.1" id="Layer_1" xmlns="http://www.w3.org/2000/svg" xmlns:xlink="http://www.w3.org/1999/xlink" x="0px" y="0px"
	 width="25.01px" height="15.979px" viewBox="0 0 25.01 15.979" enable-background="new 0 0 25.01 15.979" xml:space="preserve">
<path fill="#D24A43" d="M4.857,14.214l-0.75,0.757c-0.226,0.23-0.228,0.604,0,0.835c0.228,0.23,0.597,0.23,0.826,0l1.236-1.249
	c0.52,0.087,1.071,0.141,1.671,0.141h9.336c0.598,0,1.149-0.054,1.672-0.141l1.234,1.249c0.228,0.23,0.595,0.23,0.825,0
	c0.227-0.231,0.227-0.605,0-0.835l-0.749-0.757c2.402-0.889,3.665-2.997,3.665-6.237H1.194C1.194,11.218,2.454,13.325,4.857,14.214z
	"/>
<path fill="#D24A43" d="M24.426,6.232H0.583C0.261,6.232,0,6.495,0,6.822c0,0.327,0.261,0.589,0.583,0.589h23.843
	c0.322,0,0.583-0.263,0.583-0.589C25.01,6.495,24.748,6.232,24.426,6.232z"/>
<path fill="#D24A43" d="M22.28,4.647l-1.408,0.28c-0.167,0-0.304,0.139-0.304,0.308c0,0.17,0.137,0.309,0.304,0.309h2.019
	c0.045,0,0.089-0.01,0.131-0.03c0.017-0.008,0.021-0.03,0.036-0.041c0.033-0.023,0.053-0.048,0.076-0.084
	c0.021-0.034,0.035-0.064,0.044-0.104c0.003-0.019,0.018-0.03,0.018-0.051c0-0.015-0.018-0.043-0.025-0.061
	c-0.005-0.024,0.007-0.048-0.003-0.071l-1.972-4.209C20.97,0.375,20.338,0,19.586,0c-0.939,0-1.704,0.584-1.704,1.306h2.834
	L22.28,4.647z"/>
<path fill="#D24A43" d="M18.714,1.688c-0.07-0.043-0.164-0.021-0.209,0.052l-0.532,0.884c-0.045,0.073-0.022,0.167,0.049,0.212
	c0.025,0.015,0.052,0.022,0.08,0.022c0.051,0,0.101-0.026,0.129-0.073l0.533-0.886C18.809,1.827,18.785,1.733,18.714,1.688z"/>
<path fill="#D24A43" d="M18.901,2.859c0.05,0,0.101-0.026,0.13-0.073L19.563,1.9c0.044-0.073,0.02-0.167-0.051-0.212
	c-0.073-0.043-0.166-0.021-0.209,0.052l-0.532,0.885c-0.044,0.072-0.021,0.167,0.049,0.211C18.848,2.851,18.874,2.859,18.901,2.859z
	"/>
<path fill="#D24A43" d="M19.701,2.859c0.05,0,0.1-0.026,0.129-0.073L20.361,1.9c0.044-0.073,0.021-0.167-0.051-0.212
	c-0.072-0.043-0.166-0.021-0.209,0.052l-0.533,0.885c-0.045,0.072-0.021,0.167,0.051,0.211C19.646,2.851,19.672,2.859,19.701,2.859z
	"/>
</svg>
