<?xml version="1.0" encoding="utf-8"?>
<!-- Generator: Adobe Illustrator 17.0.1, SVG Export Plug-In . SVG Version: 6.00 Build 0)  -->
<!DOCTYPE svg PUBLIC "-//W3C//DTD SVG 1.1//EN" "http://www.w3.org/Graphics/SVG/1.1/DTD/svg11.dtd">
<svg version="1.1" id="Layer_1" xmlns="http://www.w3.org/2000/svg" xmlns:xlink="http://www.w3.org/1999/xlink" x="0px" y="0px"
	 width="6.452px" height="13.001px" viewBox="0 0 6.452 13.001" enable-background="new 0 0 6.452 13.001" xml:space="preserve">
<path fill-rule="evenodd" clip-rule="evenodd" fill="#CF4A43" d="M2.634,0.298c0.071-0.043,0.147-0.08,0.231-0.111
	c0.077-0.031,0.164-0.059,0.26-0.084L3.654,0H4l2.442,0.187h0.01L6.202,2.38h-0.01L4.846,2.24H4.807L4.673,2.258L4.625,2.277
	L4.471,2.351C4.439,2.357,4.413,2.374,4.394,2.398l-0.115,0.12C4.253,2.55,4.231,2.587,4.211,2.631
	c-0.019,0.037-0.035,0.077-0.048,0.12c-0.013,0.043-0.022,0.09-0.029,0.14c-0.007,0.043-0.01,0.09-0.01,0.14l0.019,1.375
	l1.981,0.018L5.836,6.598L4.125,6.663v6.328l-0.01,0.01H1.442V6.607H0V4.424h1.385V4.406l0.01-0.029l0.048-2.333l0.019-0.13V1.849
	l0.019-0.065c0.006-0.05,0.019-0.096,0.039-0.14c0.013-0.043,0.032-0.083,0.058-0.12c0.026-0.094,0.061-0.178,0.106-0.252
	c0.038-0.081,0.086-0.158,0.144-0.232C1.872,0.973,1.926,0.908,1.99,0.846c0.058-0.068,0.119-0.13,0.183-0.185v-0.01L2.634,0.298z"
	/>
</svg>
