<?xml version="1.0" encoding="utf-8"?>
<!-- Generator: Adobe Illustrator 17.0.1, SVG Export Plug-In . SVG Version: 6.00 Build 0)  -->
<!DOCTYPE svg PUBLIC "-//W3C//DTD SVG 1.1//EN" "http://www.w3.org/Graphics/SVG/1.1/DTD/svg11.dtd">
<svg version="1.1" id="Layer_1" xmlns="http://www.w3.org/2000/svg" xmlns:xlink="http://www.w3.org/1999/xlink" x="0px" y="0px"
	 width="13.067px" height="12.469px" viewBox="0 0 13.067 12.469" enable-background="new 0 0 13.067 12.469" xml:space="preserve">
<path fill="#D24A43" d="M12.634,5.229h-1.946V3.184c0-0.156-0.12-0.283-0.269-0.283H9.866c-0.149,0-0.27,0.128-0.27,0.283v2.045
	H7.651c-0.148,0-0.269,0.127-0.269,0.284v0.583c0,0.156,0.121,0.282,0.269,0.282h1.945v2.046c0,0.157,0.121,0.283,0.27,0.283h0.554
	c0.148,0,0.269-0.127,0.269-0.283V6.378h1.946c0.148,0,0.269-0.126,0.269-0.282V5.513C12.903,5.356,12.782,5.229,12.634,5.229z"/>
<path fill="#D24A43" d="M6.096,7.023C5.687,6.719,5.315,6.272,5.308,6.135c0-0.25,0.021-0.369,0.554-0.807
	c0.69-0.567,1.069-1.314,1.069-2.102c0-0.715-0.208-1.35-0.562-1.796h0.274c0.057,0,0.112-0.018,0.158-0.054l0.765-0.583
	c0.095-0.072,0.135-0.2,0.098-0.316C7.63,0.361,7.527,0.281,7.411,0.281H3.988c-0.375,0-0.755,0.069-1.128,0.204
	C1.612,0.938,0.74,2.056,0.74,3.202c0,1.626,1.197,2.858,2.798,2.897C3.507,6.228,3.491,6.355,3.491,6.479
	c0,0.251,0.06,0.488,0.185,0.718c-0.014,0-0.029,0-0.044,0c-1.526,0-2.903,0.787-3.426,1.959C0.069,9.46,0,9.768,0,10.073
	c0,0.295,0.072,0.58,0.214,0.847c0.329,0.618,1.035,1.098,1.988,1.351c0.493,0.131,1.022,0.198,1.571,0.198
	c0.494,0,0.964-0.067,1.399-0.2c1.357-0.414,2.234-1.464,2.234-2.677C7.406,8.429,7.051,7.733,6.096,7.023z M1.773,9.686
	c0-0.847,1.022-1.589,2.188-1.589h0.031C4.246,8.101,4.493,8.14,4.727,8.215c0.08,0.058,0.157,0.114,0.231,0.166
	c0.54,0.387,0.896,0.642,0.995,1.052C5.976,9.536,5.988,9.639,5.988,9.74c0,1.053-0.747,1.588-2.222,1.588
	C2.649,11.328,1.773,10.607,1.773,9.686z M2.834,1.691c0.182-0.219,0.421-0.333,0.688-0.333l0.03,0
	c0.757,0.023,1.48,0.91,1.614,1.976c0.075,0.596-0.051,1.158-0.337,1.5C4.647,5.053,4.411,5.168,4.132,5.168c0,0,0,0,0,0H4.12
	c-0.741-0.024-1.48-0.944-1.613-2.009C2.433,2.564,2.552,2.029,2.834,1.691z"/>
</svg>
