<?xml version="1.0" encoding="utf-8"?>
<!-- Generator: Adobe Illustrator 17.0.1, SVG Export Plug-In . SVG Version: 6.00 Build 0)  -->
<!DOCTYPE svg PUBLIC "-//W3C//DTD SVG 1.1//EN" "http://www.w3.org/Graphics/SVG/1.1/DTD/svg11.dtd">
<svg version="1.1" id="Layer_1" xmlns="http://www.w3.org/2000/svg" xmlns:xlink="http://www.w3.org/1999/xlink" x="0px" y="0px"
	 width="13.022px" height="13.094px" viewBox="0 0 13.022 13.094" enable-background="new 0 0 13.022 13.094" xml:space="preserve">
<path fill="#4893C5" d="M13.022,8.064v5.03h-2.765V8.401c0-1.179-0.4-1.984-1.401-1.984c-0.764,0-1.219,0.543-1.419,1.067
	C7.364,7.672,7.345,7.933,7.345,8.195v4.899H4.578c0,0,0.037-7.949,0-8.772h2.766v1.244C7.339,5.575,7.332,5.585,7.327,5.594h0.018
	V5.566c0.367-0.596,1.024-1.449,2.493-1.449C11.658,4.116,13.022,5.369,13.022,8.064z M1.685,0.093
	c-0.946,0-1.566,0.655-1.566,1.516c0,0.842,0.601,1.516,1.529,1.516h0.019c0.965,0,1.565-0.674,1.565-1.516
	C3.213,0.748,2.631,0.093,1.685,0.093z M0.283,13.094h2.765V4.322H0.283V13.094z"/>
</svg>
