<?xml version="1.0" encoding="utf-8"?>
<!-- Generator: Adobe Illustrator 17.0.1, SVG Export Plug-In . SVG Version: 6.00 Build 0)  -->
<!DOCTYPE svg PUBLIC "-//W3C//DTD SVG 1.1//EN" "http://www.w3.org/Graphics/SVG/1.1/DTD/svg11.dtd">
<svg version="1.1" id="Layer_1" xmlns="http://www.w3.org/2000/svg" xmlns:xlink="http://www.w3.org/1999/xlink" x="0px" y="0px"
	 width="9.969px" height="13.129px" viewBox="0 0 9.969 13.129" enable-background="new 0 0 9.969 13.129" xml:space="preserve">
<path fill="#505CA3" d="M5.329,0.156c-3.412,0-5.132,2.539-5.132,4.655c0,1.281,0.467,2.422,1.47,2.846
	C1.832,7.727,1.98,7.66,2.027,7.471c0.033-0.131,0.112-0.46,0.147-0.598c0.048-0.187,0.029-0.252-0.104-0.415
	C1.782,6.104,1.597,5.646,1.597,4.996c0-1.883,1.358-3.569,3.535-3.569c1.928,0,2.988,1.223,2.988,2.855
	c0,2.149-0.916,3.962-2.277,3.962c-0.751,0-1.313-0.644-1.133-1.436c0.216-0.944,0.634-1.963,0.634-2.644
	c0-0.61-0.316-1.119-0.968-1.119c-0.768,0-1.385,0.824-1.385,1.929c0,0.703,0.229,1.179,0.229,1.179s-0.786,3.455-0.924,4.06
	c-0.274,1.205-0.041,2.682-0.022,2.832c0.012,0.089,0.121,0.11,0.171,0.043c0.071-0.096,0.985-1.268,1.296-2.439
	c0.088-0.332,0.505-2.048,0.505-2.048c0.249,0.495,0.979,0.929,1.754,0.929c2.308,0,3.874-2.183,3.874-5.107
	C9.875,2.215,8.071,0.156,5.329,0.156z"/>
</svg>
