<?xml version="1.0" encoding="utf-8"?>
<!-- Generator: Adobe Illustrator 17.0.1, SVG Export Plug-In . SVG Version: 6.00 Build 0)  -->
<!DOCTYPE svg PUBLIC "-//W3C//DTD SVG 1.1//EN" "http://www.w3.org/Graphics/SVG/1.1/DTD/svg11.dtd">
<svg version="1.1" id="Layer_1" xmlns="http://www.w3.org/2000/svg" xmlns:xlink="http://www.w3.org/1999/xlink" x="0px" y="0px"
	 width="12.903px" height="10.562px" viewBox="0 0 12.903 10.562" enable-background="new 0 0 12.903 10.562" xml:space="preserve">
<path fill="#984C46" d="M12.903,1.25c-0.475,0.213-0.985,0.355-1.52,0.419c0.546-0.33,0.966-0.852,1.164-1.475
	c-0.511,0.305-1.078,0.528-1.681,0.647C10.383,0.323,9.695,0,8.933,0C7.471,0,6.286,1.193,6.286,2.666
	c0,0.209,0.023,0.412,0.069,0.607c-2.2-0.111-4.151-1.172-5.456-2.785C0.67,0.882,0.54,1.339,0.54,1.828
	c0,0.925,0.467,1.741,1.178,2.218C1.284,4.033,0.875,3.913,0.518,3.714c0,0.01,0,0.021,0,0.034c0,1.291,0.913,2.369,2.123,2.614
	C2.42,6.423,2.186,6.455,1.944,6.455c-0.171,0-0.336-0.017-0.498-0.048c0.337,1.059,1.314,1.83,2.473,1.852
	C3.013,8.975,1.872,9.401,0.631,9.401C0.418,9.401,0.207,9.388,0,9.363c1.171,0.757,2.563,1.198,4.058,1.198
	c4.869,0,7.532-4.063,7.532-7.587c0-0.115-0.003-0.23-0.008-0.344C12.1,2.254,12.548,1.784,12.903,1.25z"/>
</svg>
