<?xml version="1.0" encoding="utf-8"?>
<!-- Generator: Adobe Illustrator 17.0.1, SVG Export Plug-In . SVG Version: 6.00 Build 0)  -->
<!DOCTYPE svg PUBLIC "-//W3C//DTD SVG 1.1//EN" "http://www.w3.org/Graphics/SVG/1.1/DTD/svg11.dtd">
<svg version="1.1" id="Layer_1" xmlns="http://www.w3.org/2000/svg" xmlns:xlink="http://www.w3.org/1999/xlink" x="0px" y="0px"
	 width="12.837px" height="11.317px" viewBox="0 0 12.837 11.317" enable-background="new 0 0 12.837 11.317" xml:space="preserve">
<path fill-rule="evenodd" clip-rule="evenodd" fill="#CC4B44" d="M0.598,3.819L0,3.021l1.864-1.705
	c0.85-0.749,1.483-1.139,1.899-1.169C4.762,0.056,5.374,0.752,5.6,2.233c0.262,1.638,0.437,2.639,0.526,3.001
	c0.285,1.33,0.6,1.995,0.945,1.995c0.273,0,0.675-0.433,1.204-1.296C8.822,5.073,9.11,4.418,9.14,3.964
	c0.077-0.744-0.211-1.115-0.865-1.115c-0.309,0-0.624,0.069-0.945,0.209c0.63-2.098,1.837-3.116,3.62-3.056
	c1.326,0.036,1.953,0.907,1.882,2.61c-0.065,1.276-0.939,3.019-2.622,5.232c-1.748,2.315-3.225,3.472-4.432,3.472
	c-0.743,0-1.376-0.707-1.899-2.121L2.844,5.315c-0.386-1.408-0.8-2.112-1.24-2.112C1.516,3.203,1.18,3.408,0.598,3.819z"/>
</svg>
